# xmcd
# Track frame offsets:
# 150
# 16619
# 33316
# 53261
# 67591
# 81793
# 97047
# 110784
# 129907
# 146427
# 160059
# 177707
# 191318
# 207280
# 226107
#
# Disc length: 3241 seconds
# Revision: 0
# Processed by: cddbd v1.5.1PL0 Copyright (c) Steve Scherf et al.
# Submitted via: VisiTrax 2.9.10.228 - For more info visit www.synapsa.com
#
DISCID=b30ca70f
DTITLE=Mattea, Kathy - CB90013
DYEAR=1900
DGENRE=Karaoke
TTITLE0=Love At The Five And Dime
TTITLE1=Walk The Way The Wind Blows
TTITLE2=Goin' Gone
TTITLE3=Eighteen Wheels And A Dozen Roses
TTITLE4=Untold Stories
TTITLE5=Life As We Knew It
TTITLE6=Come From The Heart
TTITLE7=Where've You Been
TTITLE8=She Came From Fort Worth
TTITLE9=Battle Hymn Of Love, The
TTITLE10=Few Good Things Remain, A
TTITLE11=Time Passes By
TTITLE12=Walking Away A Winner
TTITLE13=Love Travels
TTITLE14=455 Rocket
EXTD=
EXTT0=
EXTT1=
EXTT2=
EXTT3=
EXTT4=
EXTT5=
EXTT6=
EXTT7=
EXTT8=
EXTT9=
EXTT10=
EXTT11=
EXTT12=
EXTT13=
EXTT14=
PLAYORDER=
